HIERARCHY
ROOT Hips
{
  OFFSET 279.157 85.6768 304.565
  CHANNELS 6 Xposition Yposition Zposition Zrotation Xrotation Yrotation
  JOINT LeftUpLeg
  {
    OFFSET 8.64259 1.95398 -2.38835
    CHANNELS 3 Zrotation Xrotation Yrotation
    JOINT LeftLeg
    {
      OFFSET 43.7702 0 0
      CHANNELS 3 Zrotation Xrotation Yrotation
      JOINT LeftFoot
      {
        OFFSET 40.6238 0 0
        CHANNELS 3 Zrotation Xrotation Yrotation
        JOINT LeftToeBase
        {
          OFFSET 12.7242 0 0
          CHANNELS 3 Zrotation Xrotation Yrotation
          End Site
          {
            OFFSET 0 0 0
          }
        }
      }
    }
  }
  JOINT RightUpLeg
  {
    OFFSET -8.2249 1.95398 -2.59336
    CHANNELS 3 Zrotation Xrotation Yrotation
    JOINT RightLeg
    {
      OFFSET 43.5653 0 0
      CHANNELS 3 Zrotation Xrotation Yrotation
      JOINT RightFoot
      {
        OFFSET 40.6238 0 0
        CHANNELS 3 Zrotation Xrotation Yrotation
        JOINT RightToeBase
        {
          OFFSET 12.7242 0 0
          CHANNELS 3 Zrotation Xrotation Yrotation
          End Site
          {
            OFFSET 0 0 0
          }
        }
      }
    }
  }
  JOINT Spine
  {
    OFFSET 0.165834 0.87714 6.61349
    CHANNELS 3 Zrotation Xrotation Yrotation
    JOINT Spine1
    {
      OFFSET 7.38963 1.71661e-005 0
      CHANNELS 3 Zrotation Xrotation Yrotation
      JOINT Spine2
      {
        OFFSET 11.9445 1.14441e-005 0
        CHANNELS 3 Zrotation Xrotation Yrotation
        JOINT Spine3
        {
          OFFSET 14.7254 4.19617e-005 0
          CHANNELS 3 Zrotation Xrotation Yrotation
          JOINT Spine4
          {
            OFFSET 10.9679 0 0
            CHANNELS 3 Zrotation Xrotation Yrotation
            JOINT RightShoulder
            {
              OFFSET 2.46616 -1.6653 3.69651
              CHANNELS 3 Zrotation Xrotation Yrotation
              JOINT RightArm
              {
                OFFSET 13.0012 0 0
                CHANNELS 3 Zrotation Xrotation Yrotation
                JOINT RightForeArm
                {
                  OFFSET 28.7848 1.52588e-005 0
                  CHANNELS 3 Zrotation Xrotation Yrotation
                  JOINT RightHand
                  {
                    OFFSET 26.5688 1.52588e-005 0
                    CHANNELS 3 Zrotation Xrotation Yrotation
                    End Site
                    {
                      OFFSET 0 0 0
                    }
                  }
                }
              }
            }
            JOINT LeftShoulder
            {
              OFFSET 2.38034 -1.29275 -3.7523
              CHANNELS 3 Zrotation Xrotation Yrotation
              JOINT LeftArm
              {
                OFFSET 16.3182 6.10351e-005 0
                CHANNELS 3 Zrotation Xrotation Yrotation
                JOINT LeftForeArm
                {
                  OFFSET 27.0901 0 0
                  CHANNELS 3 Zrotation Xrotation Yrotation
                  JOINT LeftHand
                  {
                    OFFSET 24.5451 1.52588e-005 0
                    CHANNELS 3 Zrotation Xrotation Yrotation
                    End Site
                    {
                      OFFSET 0 0 0
                    }
                  }
                }
              }
            }
            JOINT Neck
            {
              OFFSET 5.0226 -0.0266342 0
              CHANNELS 3 Zrotation Xrotation Yrotation
              JOINT Head
              {
                OFFSET 6.69364 2.86102e-005 0
                CHANNELS 3 Zrotation Xrotation Yrotation
                End Site
                {
                  OFFSET 0 0 0
                }
              }
            }
          }
        }
      }
    }
  }
}
MOTION
Frames:	9
Frame Time:	0.0416667
37.992 101.932 -322.228 -162.826 -84.2062 -163.229 -173.055 6.70589 89.1516 4.87249 47.8949 -6.57137 59.3407 0.586086 16.1696 53.7826 65.0334 117.622 174.999 5.19247 89.8772 -25.4848 -7.53759 -1.07616 66.4622 0.414694 3.50264 32.4484 -1.74114 5.28105 1.0472 7.26299 -89.8054 12.3486 2.17343 0.142058 0.679436 2.17757 0.0462099 -21.8688 2.03021 0.788954 -1.85616 2.0302 0.78895 102.986 -32.5502 -80.4315 46.4771 -22.6789 -10.7998 4.8888 -37.902 -11.9546 -27.698 -1.61294 -6.94797 -90.6636 -50.4015 77.8274 -21.772 16.2189 -10.7022 -1.55122 17.2714 -9.31758 -2.00106 -0.102582 -8.08961 2.96801 -2.13386 -4.34992 -5.87793 -1.39542 0.246906 
38.0469 101.945 -322.169 -159.919 -84.1963 -160.373 -173.379 6.2235 89.0174 4.24896 46.9655 -5.91006 59.4426 0.670798 16.2191 52.0642 60.9444 120.022 174.961 4.60449 89.8055 -24.2011 -7.71096 -1.05919 67.3234 -0.506813 2.8599 30.8848 -1.34884 5.79897 1.06868 7.2397 -89.8138 12.3955 2.21204 0.119605 0.726405 2.21516 0.0220792 -21.8224 2.07378 0.779161 -1.80978 2.07379 0.779172 98.6908 -35.1605 -88.6421 44.5334 -18.547 -7.59522 3.27466 -35.9265 -13.2952 -27.2766 -1.40075 -7.46588 -90.9858 -50.6597 77.408 -21.832 16.0975 -10.343 -1.73196 17.3806 -9.04624 -1.13352 -0.139042 -8.86148 2.15858 -2.33515 -4.18388 -5.66068 -1.6411 -0.0672882 
37.9948 101.945 -322.097 -158.306 -84.0261 -158.712 -173.624 4.58336 89.1475 3.61907 45.6078 -5.15288 59.3835 0.716501 16.2961 50.2875 51.5846 122.692 174.751 2.42955 89.9614 -20.6333 -8.81396 -0.804096 70.6102 -3.94473 0.130697 24.245 0.489246 6.27693 1.09205 7.27269 -89.8302 12.3299 2.25083 0.0844222 0.660899 2.25237 -0.0147823 -21.8886 2.12135 0.757288 -1.87593 2.12135 0.757288 98.4498 -35.4395 -89.0631 44.2439 -18.0832 -7.26154 3.22676 -35.9736 -13.8411 -27.5736 -1.48624 -7.04323 -91.102 -50.6214 77.2272 -21.913 16.1304 -10.56 -2.05953 16.9009 -8.45598 -1.47493 -0.133554 -10.105 3.15043 -2.60342 -3.56126 -7.31448 -1.93522 -0.911066 
37.911 102.236 -321.985 -156.667 -83.9886 -156.868 -173.843 2.35001 89.4618 2.91235 43.4163 -4.23459 59.0617 0.61956 16.1635 50.0184 36.6591 121.647 174.818 1.55013 90.1696 -18.8793 -8.93616 -0.759368 69.4792 -3.60226 0.309857 24.3762 0.4865 6.05732 1.09168 7.26261 -89.8725 12.3509 2.22995 0.00162947 0.681832 2.22787 -0.0965667 -21.8677 2.12632 0.672062 -1.85503 2.12632 0.672053 98.3492 -35.2635 -89.2721 44.1997 -18.0383 -7.18548 3.95754 -35.6203 -13.6688 -27.4885 -1.4958 -6.86932 -91.2908 -50.8434 76.9994 -21.7917 16.488 -10.2472 -2.19981 16.4221 -8.70198 -1.95005 -0.115053 -10.1856 3.19093 -2.98224 -3.25556 -8.18842 -2.33056 -1.29705 
37.7767 102.495 -321.782 -154.646 -83.9143 -154.815 -174.218 0.213725 89.3269 0.902514 39.8102 -3.03706 58.7843 0.55786 15.6525 50.0321 19.7787 113.461 174.735 0.749846 90.1657 -17.408 -9.0062 -0.642809 68.8186 -3.5359 0.608891 24.2091 0.533321 6.06507 1.08051 7.28213 -89.8937 12.3121 2.19777 -0.0359647 0.643045 2.19406 -0.132707 -21.9062 2.10692 0.62652 -1.89354 2.10693 0.626524 98.0925 -35.4238 -89.7385 43.86 -18.2165 -7.23008 4.03873 -35.6209 -13.7963 -27.8295 -1.74804 -5.5776 -91.2104 -51.1572 77.1903 -21.6587 16.5079 -10.4277 -2.16618 16.5875 -8.76978 0.30363 -0.171947 -7.85466 3.89733 -3.41716 -2.97145 -9.32146 -2.77341 -1.34776 
37.4801 102.703 -321.578 -153.109 -84.2146 -153.1 -173.96 -0.976252 89.8084 -1.73569 35.152 -2.64927 58.3392 0.254209 14.159 47.8322 3.24014 95.1989 174.997 -0.0358635 90.573 -15.4558 -9.0417 -0.631731 68.0181 -3.53534 0.372769 24.1596 0.594659 5.78765 1.06446 7.24575 -89.9233 12.3853 2.15169 -0.0918117 0.71612 2.14557 -0.186473 -21.8327 2.07977 0.559394 -1.82004 2.07976 0.559388 97.857 -35.5473 -90.1676 43.5145 -18.3029 -7.06097 4.28389 -35.9205 -13.6914 -28.145 -1.67555 -6.04509 -91.5557 -51.2601 76.7065 -21.298 16.5251 -10.2881 -2.21436 16.1234 -8.73136 -0.00635012 -0.166757 -8.05645 4.12571 -3.7433 -2.80751 -10.0342 -3.0958 -1.549 
36.9316 102.898 -321.238 -153.102 -84.2776 -153.322 -174.084 -2.6482 89.6269 -3.98427 27.2877 -1.78675 57.1786 -0.845393 10.3602 44.6384 4.78254 64.7004 175.007 -0.748162 90.6937 -14.2745 -9.08527 -0.582976 67.5298 -3.6278 0.10488 24.4157 0.515539 5.81509 1.01293 7.26068 -89.9364 12.3555 2.0431 -0.104966 0.686139 2.0365 -0.194834 -21.8614 1.98016 0.514169 -1.84873 1.98015 0.514161 97.3121 -34.7635 -91.3044 43.9206 -17.6591 -6.48563 2.5655 -35.4917 -15.2907 -27.0743 -1.69083 -5.79055 -91.3656 -51.5838 77.0601 -21.2049 16.292 -10.4373 -2.06888 16.161 -8.82728 -0.46626 -0.161511 -8.64819 4.48503 -3.64473 -1.76493 -10.8864 -3.11099 -2.2398 
36.2771 103.08 -320.816 -155.033 -84.552 -155.309 -174.235 -3.37187 89.7908 -6.4823 15.7824 -0.815211 55.7269 -2.46198 3.37289 43.0539 4.42454 36.277 174.909 -1.66988 90.8996 -12.8277 -8.96083 -0.263456 67.3217 -3.87389 0.0754165 23.6321 0.748834 5.78451 0.957973 7.26337 -89.9461 12.3497 1.92931 -0.111103 0.680191 1.92255 -0.195949 -21.866 1.87347 0.474079 -1.85336 1.87347 0.474076 96.2647 -34.4901 -93.3347 43.6276 -16.7097 -5.86776 2.83434 -34.4416 -15.1313 -27.4701 -1.46908 -6.66853 -91.4149 -51.4132 76.9489 -21.5483 15.7963 -10.4011 -1.78856 16.3367 -8.72464 -1.04326 -0.143027 -8.90264 4.40595 -3.64602 -1.873 -11.1905 -3.12139 -1.84849 
35.2497 103.273 -320.226 -159.204 -84.6529 -159.356 -173.774 -2.37818 90.8709 -11.3899 2.63609 -0.250323 54.9433 -4.71944 -6.20012 45.8123 8.27982 14.0433 175.279 -3.42215 91.6689 -10.342 -8.17236 -0.144996 66.5764 -4.03614 -0.104674 23.4859 0.755045 5.98878 0.898858 7.29169 -89.9976 12.2935 1.78752 -0.196622 0.623737 1.77713 -0.275133 -21.9211 1.76395 0.34987 -1.90843 1.76394 0.349859 95.5402 -33.8233 -94.8437 43.378 -16.6444 -5.8098 3.358 -33.6977 -14.429 -26.8778 -1.45422 -6.49028 -91.3062 -52.071 77.2582 -21.0538 15.5335 -10.4066 -1.76215 15.2018 -8.61311 -0.823156 -0.163774 -9.78212 3.71101 -3.54007 -1.65042 -11.0854 -3.1099 -1.34981 
